<?xml version="1.0" standalone="no"?>
<!DOCTYPE svg PUBLIC "-//W3C//DTD SVG 20010904//EN"
 "http://www.w3.org/TR/2001/REC-SVG-20010904/DTD/svg10.dtd">
<svg version="1.0" xmlns="http://www.w3.org/2000/svg"
 width="512.000000pt" height="512.000000pt" viewBox="0 0 512.000000 512.000000"
 preserveAspectRatio="xMidYMid meet">
<metadata>
Created by potrace 1.11, written by Peter Selinger 2001-2013
</metadata>
<g transform="translate(0.000000,512.000000) scale(0.100000,-0.100000)"
fill="#000000" stroke="none">
<path d="M1513 2920 c-47 -11 -95 -51 -170 -141 -43 -53 -81 -88 -112 -104
-73 -37 -187 -121 -247 -183 -103 -104 -162 -207 -274 -480 -88 -214 -148
-301 -252 -366 -77 -49 -144 -73 -241 -90 -80 -14 -83 -16 -130 -67 -81 -91
-84 -155 -8 -206 69 -46 132 -58 311 -57 193 1 244 11 450 84 371 133 426 146
549 137 186 -15 327 -108 415 -277 77 -147 125 -354 181 -771 41 -312 64 -378
136 -394 40 -9 121 30 186 89 61 55 148 183 186 274 30 71 67 238 67 302 l0
43 108 -7 c143 -9 541 -51 727 -77 181 -24 280 -46 299 -64 7 -8 41 -97 75
-198 34 -100 79 -214 100 -253 36 -66 85 -114 118 -114 38 0 169 160 255 310
50 87 136 266 186 385 56 134 124 324 120 336 -2 4 -26 -21 -55 -56 -165 -202
-467 -291 -872 -256 -197 17 -457 69 -600 119 -208 74 -441 289 -417 385 7 29
19 38 201 145 292 171 545 385 752 637 134 164 259 400 322 609 24 79 40 241
23 235 -6 -2 -74 -84 -152 -182 -330 -414 -548 -607 -840 -746 -188 -89 -393
-133 -710 -150 -330 -19 -604 -95 -1120 -311 -102 -43 -227 -90 -276 -104
-163 -46 -330 -54 -367 -17 -23 23 23 60 160 126 266 129 445 242 657 414 305
246 779 532 1048 632 616 228 1029 332 1385 346 90 3 162 8 159 10 -2 2 -52
10 -112 18 -334 45 -816 -20 -1274 -171 -229 -75 -254 -77 -464 -39 -75 14
-169 29 -209 33 -70 7 -73 8 -89 42 -10 19 -23 54 -28 77 -19 79 -76 112 -157
93z m-417 -693 c46 -50 52 -94 23 -154 -20 -39 -32 -51 -71 -67 -40 -17 -53
-18 -86 -8 -104 31 -141 153 -70 230 33 35 56 42 117 38 47 -2 58 -7 87 -39z"/>
<path d="M883 2803 c-10 -23 -18 -77 -21 -135 l-4 -98 63 29 c35 15 88 36 117
45 28 10 52 21 52 25 0 14 -62 106 -93 139 -23 24 -40 32 -64 32 -30 0 -36 -5
-50 -37z"/>
<path d="M4377 2637 c137 -157 248 -396 288 -617 24 -135 39 -195 69 -277 42
-116 47 -153 54 -433 l7 -265 31 -66 c49 -103 121 -146 190 -113 64 30 92 118
100 314 7 154 -7 264 -57 469 -56 229 -153 460 -262 620 -93 138 -272 305
-405 379 l-47 26 32 -37z"/>
<path d="M4683 1705 c0 -22 2 -30 4 -17 2 12 2 30 0 40 -3 9 -5 -1 -4 -23z"/>
</g>
</svg>
